<svg width="428" height="223" viewBox="0 0 428 223" fill="none" xmlns="http://www.w3.org/2000/svg">
<mask id="mask0_3_295" style="mask-type:alpha" maskUnits="userSpaceOnUse" x="4" y="0" width="420" height="215">
<rect x="4" width="420" height="215" rx="12" fill="#396B5F"/>
</mask>
<g mask="url(#mask0_3_295)">
<g filter="url(#filter0_f_3_295)">
<ellipse cx="328.895" cy="32.5" rx="290.812" ry="228.5" fill="white" fill-opacity="0.1"/>
</g>
<ellipse cx="-7.5" cy="213" rx="187.5" ry="77" fill="black" fill-opacity="0.04"/>
<ellipse cx="414" cy="32.5" rx="115" ry="60.5" fill="black" fill-opacity="0.04"/>
<path d="M636.829 7.22339C524.985 20.4929 349.636 47.3471 438.843 132.119C552.365 239.997 829.778 211.736 706.57 295" stroke="white" stroke-opacity="0.14"/>
<path d="M596.844 5.96655C485.001 19.2361 309.651 46.0903 398.858 130.862C512.38 238.741 789.793 210.479 666.585 293.743" stroke="white" stroke-opacity="0.14"/>
<path d="M556.86 2.19678C445.016 15.4663 269.666 42.3205 358.873 127.092C472.396 234.971 749.809 206.71 626.6 289.973" stroke="white" stroke-opacity="0.14"/>
<path d="M517.373 -2.82996C406.083 10.4396 231.601 37.2938 320.367 122.066C433.327 229.944 709.367 201.683 586.768 284.947" stroke="white" stroke-opacity="0.14"/>
<path d="M478.489 -7.85669C366.645 5.41284 191.295 32.2671 280.503 117.039C394.025 224.917 671.438 196.656 548.229 279.92" stroke="white" stroke-opacity="0.14"/>
<path d="M439.003 -12.8833C327.713 0.386233 153.231 27.2405 241.997 112.012C354.957 219.891 630.997 191.63 508.398 274.893" stroke="white" stroke-opacity="0.14"/>
<path d="M399.018 -17.91C287.728 -4.6405 113.246 22.2137 202.012 106.986C314.972 214.864 591.012 186.603 468.413 269.867" stroke="white" stroke-opacity="0.14"/>
<path d="M360.134 -22.9366C248.291 -9.66711 72.9409 17.1871 162.148 101.959C275.67 209.837 553.083 181.576 429.875 264.84" stroke="white" stroke-opacity="0.14"/>
<path d="M320.149 -26.7065C208.305 -13.437 32.9554 13.4172 122.163 98.1891C235.685 206.067 513.098 177.806 389.889 261.07" stroke="white" stroke-opacity="0.14"/>
<path d="M280.663 -29.22C169.373 -15.9504 -5.1088 10.9038 83.6567 95.6757C196.617 203.554 472.657 175.293 350.058 258.557" stroke="white" stroke-opacity="0.14"/>
<path d="M240.678 -31.7333C129.388 -18.4637 -45.0938 8.39047 43.6717 93.1624C156.632 201.041 432.672 172.78 310.073 256.043" stroke="white" stroke-opacity="0.14"/>
<path d="M200.693 -34.2467C89.4029 -20.9772 -85.0789 5.87705 3.68666 90.649C116.647 198.527 392.687 170.266 270.088 253.53" stroke="white" stroke-opacity="0.14"/>
<path d="M160.708 -35.5033C49.4181 -22.2338 -125.064 4.62046 -36.2981 89.3924C76.6622 197.271 352.702 169.01 230.103 252.273" stroke="white" stroke-opacity="0.14"/>
<path d="M120.723 -35.5033C9.43336 -22.2338 -165.048 4.62046 -76.2829 89.3924C36.6775 197.271 312.717 169.01 190.119 252.273" stroke="white" stroke-opacity="0.14"/>
<path d="M81.8394 -36.76C-30.004 -23.4905 -205.354 3.36374 -116.147 88.1357C-2.62433 196.014 274.789 167.753 151.58 251.017" stroke="white" stroke-opacity="0.14"/>
<path d="M41.8544 -35.5033C-69.989 -22.2338 -245.339 4.62046 -156.132 89.3924C-42.6094 197.271 234.804 169.01 111.595 252.273" stroke="white" stroke-opacity="0.14"/>
<path d="M1.86965 -34.2467C-109.974 -20.9772 -285.324 5.87705 -196.116 90.649C-82.5941 198.527 194.819 170.266 71.6103 253.53" stroke="white" stroke-opacity="0.14"/>
<path d="M-38.1147 -31.7333C-149.958 -18.4637 -325.308 8.39047 -236.101 93.1624C-122.578 201.041 154.835 172.78 31.626 256.043" stroke="white" stroke-opacity="0.14"/>
<path d="M-78.0999 -29.22C-189.943 -15.9504 -365.293 10.9038 -276.086 95.6757C-162.564 203.554 114.849 175.293 -8.35923 258.557" stroke="white" stroke-opacity="0.14"/>
</g>
<defs>
<filter id="filter0_f_3_295" x="-61.9162" y="-296" width="781.623" height="657" filterUnits="userSpaceOnUse" color-interpolation-filters="sRGB">
<feFlood flood-opacity="0" result="BackgroundImageFix"/>
<feBlend mode="normal" in="SourceGraphic" in2="BackgroundImageFix" result="shape"/>
<feGaussianBlur stdDeviation="50" result="effect1_foregroundBlur_3_295"/>
</filter>
</defs>
</svg>
